<svg width="16" height="16" viewBox="0 0 16 16" fill="none" xmlns="http://www.w3.org/2000/svg">
<path fill-rule="evenodd" clip-rule="evenodd" d="M5.09091 3.63636H2.99207C4.39611 2.03009 5.93397 1.45455 8 1.45455C11.615 1.45455 14.5455 4.38505 14.5455 8C14.5455 11.615 11.615 14.5455 8 14.5455C4.38505 14.5455 1.45455 11.615 1.45455 8H0C0 12.4183 3.58172 16 8 16C12.4183 16 16 12.4183 16 8C16 3.58172 12.4183 0 8 0C5.663 0 3.80878 0.662224 2.18182 2.36833V0.720881H0.727273V5.09091H5.09091V3.63636ZM11.6364 7.27273H8.72727V3.63636H7.27273V8.72727H11.6364V7.27273Z" fill="url(#paint0_linear)"/>
<defs>
<linearGradient id="paint0_linear" x1="8" y1="0" x2="8" y2="16" gradientUnits="userSpaceOnUse">
<stop stop-color="white"/>
<stop offset="1" stop-color="#929EB1"/>
</linearGradient>
</defs>
</svg>
