<svg width="16" height="16" viewBox="0 0 16 16" fill="none" xmlns="http://www.w3.org/2000/svg">
<path d="M15.12 0.96H13.28V0.16C13.28 0.072 13.208 0 13.12 0H2.88C2.792 0 2.72 0.072 2.72 0.16V0.96H0.88C0.64661 0.96 0.422778 1.05271 0.257746 1.21775C0.092714 1.38278 0 1.60661 0 1.84V4.8C0 6.434 1.2 7.792 2.764 8.04C3.074 10.364 4.94 12.194 7.28 12.45V14.554H3.36C3.006 14.554 2.72 14.84 2.72 15.194V15.84C2.72 15.928 2.792 16 2.88 16H13.12C13.208 16 13.28 15.928 13.28 15.84V15.194C13.28 14.84 12.994 14.554 12.64 14.554H8.72V12.45C11.06 12.194 12.926 10.364 13.236 8.04C14.8 7.792 16 6.434 16 4.8V1.84C16 1.60661 15.9073 1.38278 15.7423 1.21775C15.5772 1.05271 15.3534 0.96 15.12 0.96ZM1.44 4.8V2.4H2.72V6.552C2.34849 6.43333 2.02431 6.19968 1.79424 5.88478C1.56417 5.56987 1.44012 5.19 1.44 4.8V4.8ZM11.84 7.36C11.84 8.342 11.458 9.268 10.762 9.962C10.066 10.658 9.142 11.04 8.16 11.04H7.84C6.858 11.04 5.932 10.658 5.238 9.962C4.542 9.266 4.16 8.342 4.16 7.36V1.44H11.84V7.36ZM14.56 4.8C14.56 5.62 14.022 6.316 13.28 6.552V2.4H14.56V4.8Z" fill="url(#paint0_linear)"/>
<defs>
<linearGradient id="paint0_linear" x1="8" y1="0" x2="8" y2="16" gradientUnits="userSpaceOnUse">
<stop stop-color="white"/>
<stop offset="1" stop-color="#929EB1"/>
</linearGradient>
</defs>
</svg>
