<svg width="72" height="72" viewBox="0 0 72 72" fill="none" xmlns="http://www.w3.org/2000/svg">
<path d="M72 48.7266C72 38.2319 64.9286 29.0627 54.9569 26.2996C54.3301 11.6917 42.2518 0 27.4922 0C12.3327 0 0 12.3327 0 27.4922C0 32.4327 1.31506 37.2431 3.81226 41.4662L0.101074 54.8828L13.5181 51.1721C17.4001 53.4677 21.7793 54.7608 26.2991 54.9558C29.0616 64.9281 38.2313 72 48.7266 72C52.9156 72 56.9894 70.8843 60.5687 68.7645L71.8984 71.8984L68.7645 60.5687C70.8843 56.9894 72 52.9156 72 48.7266ZM14.1839 46.6106L6.15179 48.8326L8.37378 40.8005L7.86731 40.0084C5.48053 36.2741 4.21875 31.946 4.21875 27.4922C4.21875 14.6591 14.6591 4.21875 27.4922 4.21875C40.3253 4.21875 50.7656 14.6591 50.7656 27.4922C50.7656 40.3253 40.3253 50.7656 27.4922 50.7656C23.0383 50.7656 18.7108 49.5038 14.976 47.1171L14.1839 46.6106ZM65.8482 65.8482L59.8881 64.1992L59.0922 64.7172C56.0067 66.7216 52.4218 67.7812 48.7266 67.7812C40.478 67.7812 33.2298 62.4479 30.6617 54.8004C43.2927 53.3441 53.3441 43.2927 54.8009 30.6612C62.4479 33.2298 67.7812 40.478 67.7812 48.7266C67.7812 52.4218 66.7216 56.0067 64.7172 59.0922L64.1992 59.8881L65.8482 65.8482Z" fill="#3F4051"/>
<path d="M25.3828 38.1094H29.6016V42.3281H25.3828V38.1094Z" fill="#3F4051"/>
<path d="M31.7109 21.0938C31.7109 22.2918 31.2231 23.3976 30.3376 24.2078L25.3828 28.743V33.8906H29.6016V30.6008L33.1859 27.3203C34.9294 25.7245 35.9297 23.4553 35.9297 21.0938C35.9297 16.441 32.1449 12.6562 27.4922 12.6562C22.8395 12.6562 19.0547 16.441 19.0547 21.0938H23.2734C23.2734 18.7674 25.1658 16.875 27.4922 16.875C29.8185 16.875 31.7109 18.7674 31.7109 21.0938Z" fill="#3F4051"/>
</svg>
