<svg width="20" height="20" viewBox="0 0 20 20" fill="none" xmlns="http://www.w3.org/2000/svg">
<path fill-rule="evenodd" clip-rule="evenodd" d="M11.5057 4.54368L12.9512 5.94702L6.54231 12.3628C6.22072 12.6863 6.22072 13.2071 6.54231 13.5307C6.84747 13.8378 7.35726 13.8364 7.65917 13.529L14.7103 6.46741C15.7397 5.43179 15.7397 3.76857 14.7103 2.73294C13.7282 1.74484 11.9904 1.76682 11.0279 2.73482L3.33168 10.437C1.59409 12.1844 1.59409 14.9904 3.33168 16.7378C5.01897 18.4346 7.91747 18.407 9.5784 16.7362L18.5544 7.74899L20 9.1522L11.0256 18.1378C8.57708 20.6008 4.37194 20.6409 1.88297 18.1379C-0.627946 15.6127 -0.627946 11.562 1.8847 9.03517L9.5809 1.33301C11.3291 -0.425057 14.3735 -0.463563 16.1593 1.33316C17.9617 3.14642 17.9617 6.05393 16.1577 7.86883L9.11078 14.9262C8.02068 16.0361 6.19703 16.0411 5.0932 14.9304C3.99882 13.8292 3.99882 12.0643 5.09503 10.9612L11.5057 4.54368Z" fill="#FF2C2C"/>
</svg>
