<svg width="16" height="17" viewBox="0 0 16 17" fill="none" xmlns="http://www.w3.org/2000/svg">
<path fill-rule="evenodd" clip-rule="evenodd" d="M5.09091 4.13636H2.99207C4.39611 2.53009 5.93397 1.95455 8 1.95455C11.615 1.95455 14.5455 4.88505 14.5455 8.5C14.5455 12.115 11.615 15.0455 8 15.0455C4.38505 15.0455 1.45455 12.115 1.45455 8.5H0C0 12.9183 3.58172 16.5 8 16.5C12.4183 16.5 16 12.9183 16 8.5C16 4.08172 12.4183 0.5 8 0.5C5.663 0.5 3.80878 1.16222 2.18182 2.86833V1.22088H0.727273V5.59091H5.09091V4.13636ZM11.6364 7.77273H8.72727V4.13636H7.27273V9.22727H11.6364V7.77273Z" fill="url(#paint0_linear)"/>
<defs>
<linearGradient id="paint0_linear" x1="8" y1="0.5" x2="8" y2="16.5" gradientUnits="userSpaceOnUse">
<stop stop-color="white"/>
<stop offset="1" stop-color="#929EB1"/>
</linearGradient>
</defs>
</svg>
