<svg width="24" height="22" viewBox="0 0 24 22" fill="none" xmlns="http://www.w3.org/2000/svg">
<path d="M0.370846 3.9594L6.20932 7.54958L11.8078 0.0967386C11.8303 0.0667421 11.8595 0.042394 11.8931 0.0256237C11.9267 0.00885343 11.9637 0.00012207 12.0013 0.00012207C12.0388 0.00012207 12.0759 0.00885343 12.1095 0.0256237C12.1431 0.042394 12.1723 0.0667421 12.1948 0.0967386L17.7903 7.54958L23.6317 3.9594C23.8027 3.8546 24.0248 3.99533 23.9978 4.19595L21.7056 21.5809C21.6726 21.8175 21.4685 22.0001 21.2255 22.0001H2.77104C2.53102 22.0001 2.324 21.8205 2.294 21.5809L0.00181389 4.19595C-0.0221881 3.99533 0.196832 3.8546 0.370846 3.9594ZM4.15115 19.952H12.0013H19.8514L21.4655 7.69331L17.2712 10.2714L11.9998 3.25274L6.72836 10.2714L2.53402 7.69331L4.15115 19.952ZM11.9998 10.9212C13.8629 10.9212 15.3781 12.4333 15.3781 14.2928C15.3781 16.1522 13.8629 17.6644 11.9998 17.6644C10.1366 17.6644 8.62151 16.1522 8.62151 14.2928C8.62151 12.4333 10.1366 10.9212 11.9998 10.9212ZM11.9998 15.739C12.7978 15.739 13.4459 15.0922 13.4459 14.2928C13.4459 13.4963 12.7978 12.8465 11.9998 12.8465C11.2017 12.8465 10.5537 13.4933 10.5537 14.2928C10.5537 15.0893 11.2017 15.739 11.9998 15.739Z" fill="#F0FB4A"/>
</svg>
