<svg width="31" height="33" viewBox="0 0 31 33" fill="none" xmlns="http://www.w3.org/2000/svg">
<path d="M29.9943 8.64518C29.9605 8.31175 29.7666 8.01664 29.4769 7.87212L15.8832 1.09087C15.6402 0.969711 15.3596 0.969711 15.1167 1.09087L1.52296 7.87212C1.2333 8.01664 1.03948 8.31169 1.00555 8.64518C1.00481 8.65214 1 8.7449 1 8.74999V25.2187C1 25.6148 1.2256 25.9711 1.56969 26.1182L15.1634 31.9307C15.2715 31.9769 15.3858 32 15.5 32C15.6142 32 15.7285 31.9769 15.8366 31.9307L29.4303 26.1182C29.7744 25.9711 30 25.6148 30 25.2187V8.74999C30 8.7449 29.9951 8.65208 29.9943 8.64518ZM15.5 3.03775L26.8136 8.68157L22.4572 10.5444L10.9306 5.31722L15.5 3.03775ZM8.72068 6.41966L20.0684 11.5657L15.5 13.5191L4.18638 8.68157L8.72068 6.41966ZM2.8125 10.1808L14.5938 15.2183V29.6003L2.8125 24.5628V10.1808ZM16.4062 29.6004V15.2183L28.1875 10.1808V24.5628L16.4062 29.6004Z" fill="url(#paint0_linear)" stroke="url(#paint1_linear)" stroke-width="0.5"/>
<defs>
<linearGradient id="paint0_linear" x1="15.5" y1="1" x2="15.5" y2="32" gradientUnits="userSpaceOnUse">
<stop stop-color="white"/>
<stop offset="1" stop-color="#929EB1"/>
</linearGradient>
<linearGradient id="paint1_linear" x1="15.5" y1="1" x2="15.5" y2="32" gradientUnits="userSpaceOnUse">
<stop stop-color="white"/>
<stop offset="1" stop-color="#929EB1"/>
</linearGradient>
</defs>
</svg>
