<svg width="25" height="26" viewBox="0 0 25 26" fill="none" xmlns="http://www.w3.org/2000/svg">
<path d="M24.9951 6.41209C24.9659 6.13244 24.7988 5.88493 24.5491 5.76371L12.8303 0.07621C12.6209 -0.0254033 12.379 -0.0254033 12.1696 0.07621L0.45083 5.76371C0.201123 5.88493 0.0340332 6.13238 0.00478516 6.41209C0.00415039 6.41793 0 6.49573 0 6.49999V20.3125C0 20.6447 0.194482 20.9435 0.491113 21.0669L12.2099 25.9419C12.303 25.9806 12.4015 26 12.5 26C12.5985 26 12.697 25.9807 12.7901 25.9419L24.5089 21.0669C24.8055 20.9435 25 20.6447 25 20.3125V6.49999C25 6.49573 24.9958 6.41788 24.9951 6.41209ZM12.5 1.70908L22.2531 6.44261L18.4976 8.00494L8.56089 3.6209L12.5 1.70908ZM6.65576 4.54552L16.4383 8.86157L12.5 10.4999L2.74688 6.44261L6.65576 4.54552ZM1.5625 7.70005L11.7188 11.9251V23.9874L1.5625 19.7624V7.70005ZM13.2812 23.9874V11.9251L23.4375 7.70005V19.7624L13.2812 23.9874Z" fill="#FF2C2C"/>
</svg>
