<svg width="31" height="31" viewBox="0 0 31 31" fill="none" xmlns="http://www.w3.org/2000/svg">
<path d="M29.295 1.86H25.73V0.31C25.73 0.1395 25.5905 0 25.42 0H5.58C5.4095 0 5.27 0.1395 5.27 0.31V1.86H1.705C1.25281 1.86 0.819132 2.03963 0.499383 2.35938C0.179633 2.67913 0 3.11281 0 3.565V9.3C0 12.4659 2.325 15.097 5.35525 15.5775C5.95587 20.0802 9.57125 23.6259 14.105 24.1219V28.1984H6.51C5.82412 28.1984 5.27 28.7525 5.27 29.4384V30.69C5.27 30.8605 5.4095 31 5.58 31H25.42C25.5905 31 25.73 30.8605 25.73 30.69V29.4384C25.73 28.7525 25.1759 28.1984 24.49 28.1984H16.895V24.1219C21.4287 23.6259 25.0441 20.0802 25.6447 15.5775C28.675 15.097 31 12.4659 31 9.3V3.565C31 3.11281 30.8204 2.67913 30.5006 2.35938C30.1809 2.03963 29.7472 1.86 29.295 1.86ZM2.79 9.3V4.65H5.27V12.6945C4.55021 12.4646 3.92209 12.0119 3.47634 11.4018C3.03058 10.7916 2.79023 10.0556 2.79 9.3ZM22.94 14.26C22.94 16.1626 22.1999 17.9567 20.8514 19.3014C19.5029 20.6499 17.7126 21.39 15.81 21.39H15.19C13.2874 21.39 11.4932 20.6499 10.1486 19.3014C8.80012 17.9529 8.06 16.1626 8.06 14.26V2.79H22.94V14.26ZM28.21 9.3C28.21 10.8888 27.1676 12.2373 25.73 12.6945V4.65H28.21V9.3Z" fill="url(#paint0_linear)"/>
<defs>
<linearGradient id="paint0_linear" x1="15.5" y1="0" x2="15.5" y2="31" gradientUnits="userSpaceOnUse">
<stop stop-color="white"/>
<stop offset="1" stop-color="#929EB1"/>
</linearGradient>
</defs>
</svg>
