<svg width="22" height="22" viewBox="0 0 22 22" fill="none" xmlns="http://www.w3.org/2000/svg">
<path d="M20.79 1.32L18.26 1.32V0.22C18.26 0.099 18.161 0 18.04 0L3.96 0C3.839 0 3.74 0.099 3.74 0.22V1.32L1.21 1.32C0.889088 1.32 0.58132 1.44748 0.354401 1.6744C0.127482 1.90132 0 2.20909 0 2.53L0 6.6C0 8.84675 1.65 10.714 3.8005 11.055C4.22675 14.2505 6.7925 16.7668 10.01 17.1188V20.0118H4.62C4.13325 20.0118 3.74 20.405 3.74 20.8918V21.78C3.74 21.901 3.839 22 3.96 22L18.04 22C18.161 22 18.26 21.901 18.26 21.78V20.8918C18.26 20.405 17.8668 20.0118 17.38 20.0118H11.99V17.1188C15.2075 16.7668 17.7732 14.2505 18.1995 11.055C20.35 10.714 22 8.84675 22 6.6V2.53C22 2.20909 21.8725 1.90132 21.6456 1.6744C21.4187 1.44748 21.1109 1.32 20.79 1.32ZM1.98 6.6L1.98 3.3H3.74L3.74 9.009C3.22918 8.84584 2.78342 8.52456 2.46708 8.09157C2.15073 7.65857 1.98017 7.13625 1.98 6.6V6.6ZM16.28 10.12C16.28 11.4703 15.7547 12.7435 14.7977 13.6977C13.8407 14.6547 12.5702 15.18 11.22 15.18H10.78C9.42975 15.18 8.1565 14.6547 7.20225 13.6977C6.24525 12.7407 5.72 11.4703 5.72 10.12L5.72 1.98L16.28 1.98V10.12ZM20.02 6.6C20.02 7.7275 19.2802 8.6845 18.26 9.009V3.3L20.02 3.3V6.6Z" fill="#FF2C2C"/>
</svg>
