<svg width="16" height="12" viewBox="0 0 16 12" fill="none" xmlns="http://www.w3.org/2000/svg">
<path d="M13.9049 1.44856C13.9049 1.44856 12.7586 0.183144 10.1557 0V0.399561C10.1557 0.399561 11.5833 0.313087 13.3505 2.12683C12.0166 1.12621 10.1137 0.499383 8 0.499383C5.88633 0.499383 3.98342 1.12611 2.64951 2.12683C4.41668 0.313087 5.84428 0.399561 5.84428 0.399561V0C3.24144 0.183144 2.09509 1.44856 2.09509 1.44856C0.111737 4.11231 0 9.93965 0 9.93965C1.86824 12.2872 4.21561 11.9876 4.21561 11.9876L5.07786 10.689C3.96591 10.3754 3.17184 9.65529 2.69458 9.09455C4.02609 10.0758 5.90989 10.689 8 10.689C10.0901 10.689 11.9739 10.0759 13.3054 9.09455C12.8282 9.6552 12.0341 10.3754 10.9221 10.689L11.7844 11.9876C11.7844 11.9876 14.1318 12.2873 16 9.93965C16 9.93965 15.8884 4.11231 13.9049 1.44856ZM5.50907 8.29135C4.75945 8.29135 4.15178 7.61818 4.15178 6.78764C4.15178 5.95719 4.75945 5.28393 5.50907 5.28393C6.2587 5.28393 6.86636 5.95719 6.86636 6.78764C6.86636 7.61809 6.2587 8.29135 5.50907 8.29135ZM10.4911 8.29135C9.74148 8.29135 9.13381 7.61818 9.13381 6.78764C9.13381 5.95719 9.74148 5.28393 10.4911 5.28393C11.2407 5.28393 11.8484 5.95719 11.8484 6.78764C11.8484 7.61809 11.2408 8.29135 10.4911 8.29135Z" fill="url(#paint0_linear)"/>
<defs>
<linearGradient id="paint0_linear" x1="8" y1="0" x2="8" y2="12" gradientUnits="userSpaceOnUse">
<stop stop-color="#64657D"/>
<stop offset="1" stop-color="#5A5C7B"/>
</linearGradient>
</defs>
</svg>
