<svg width="20" height="20" viewBox="0 0 20 20" fill="none" xmlns="http://www.w3.org/2000/svg">
<path d="M14.2583 0H8.10305L9.27176 5.39709H13.0895L14.2583 0Z" fill="white"/>
<path d="M9.27176 8.05652V6.17928H13.0895V8.05652H9.27176Z" fill="white"/>
<path d="M15.6476 20L20 15.6306L15.3721 12.6439L12.6726 15.354L15.6476 20Z" fill="white"/>
<path d="M13.499 10.7634L14.8212 12.0908L12.1216 14.801L10.7994 13.4735L13.499 10.7634Z" fill="white"/>
<path d="M0 8.05652L2.69053e-07 14.2358L5.37606 13.0625V9.2298L0 8.05652Z" fill="white"/>
<path d="M8.02514 13.0625H6.1552V9.2298L8.02514 9.2298V13.0625Z" fill="white"/>
<path d="M9.34968 10.716L10.7521 9.30802L12.1546 10.716L10.7521 12.1239L9.34968 10.716Z" fill="white"/>
</svg>
