<svg width="46" height="46" viewBox="0 0 46 46" fill="none" xmlns="http://www.w3.org/2000/svg">
<g filter="url(#filter0_d)">
<path d="M24.2924 26.1974C24.2611 26.1664 24.2188 26.149 24.1747 26.149C24.1306 26.149 24.0883 26.1664 24.057 26.1974L21.6362 28.6184C20.5154 29.7393 18.6238 29.858 17.3864 28.6184C16.1468 27.3787 16.2656 25.4891 17.3864 24.3682L19.8071 21.9472C19.8717 21.8826 19.8717 21.7764 19.8071 21.7118L18.978 20.8826C18.9467 20.8516 18.9044 20.8342 18.8603 20.8342C18.8162 20.8342 18.7739 20.8516 18.7426 20.8826L16.3218 23.3035C14.5594 25.0661 14.5594 27.9183 16.3218 29.6788C18.0843 31.4393 20.9363 31.4414 22.6966 29.6788L25.1174 27.2579C25.182 27.1933 25.182 27.087 25.1174 27.0225L24.2924 26.1974ZM29.6797 16.3219C27.9173 14.5594 25.0653 14.5594 23.3049 16.3219L20.8821 18.7429C20.8511 18.7742 20.8337 18.8165 20.8337 18.8606C20.8337 18.9047 20.8511 18.947 20.8821 18.9783L21.7092 19.8054C21.7737 19.87 21.88 19.87 21.9446 19.8054L24.3653 17.3845C25.4861 16.2636 27.3777 16.1448 28.6152 17.3845C29.8547 18.6241 29.736 20.5138 28.6152 21.6347L26.1944 24.0556C26.1634 24.087 26.146 24.1293 26.146 24.1734C26.146 24.2174 26.1634 24.2598 26.1944 24.2911L27.0236 25.1203C27.0881 25.1849 27.1944 25.1849 27.259 25.1203L29.6797 22.6993C31.4401 20.9367 31.4401 18.0845 29.6797 16.3219V16.3219ZM25.0445 20.0909C25.0131 20.0599 24.9708 20.0425 24.9268 20.0425C24.8827 20.0425 24.8404 20.0599 24.8091 20.0909L20.0905 24.8078C20.0594 24.8391 20.042 24.8814 20.042 24.9255C20.042 24.9696 20.0594 25.0119 20.0905 25.0432L20.9154 25.8682C20.98 25.9328 21.0863 25.9328 21.1508 25.8682L25.8674 21.1513C25.9319 21.0868 25.9319 20.9805 25.8674 20.9159L25.0445 20.0909Z" fill="url(#paint0_linear)"/>
</g>
<defs>
<filter id="filter0_d" x="0" y="0" width="46" height="46" filterUnits="userSpaceOnUse" color-interpolation-filters="sRGB">
<feFlood flood-opacity="0" result="BackgroundImageFix"/>
<feColorMatrix in="SourceAlpha" type="matrix" values="0 0 0 0 0 0 0 0 0 0 0 0 0 0 0 0 0 0 127 0"/>
<feOffset/>
<feGaussianBlur stdDeviation="7.5"/>
<feColorMatrix type="matrix" values="0 0 0 0 1 0 0 0 0 0.172549 0 0 0 0 0.172549 0 0 0 1 0"/>
<feBlend mode="normal" in2="BackgroundImageFix" result="effect1_dropShadow"/>
<feBlend mode="normal" in="SourceGraphic" in2="effect1_dropShadow" result="shape"/>
</filter>
<linearGradient id="paint0_linear" x1="23" y1="15" x2="23" y2="31" gradientUnits="userSpaceOnUse">
<stop stop-color="white"/>
<stop offset="1" stop-color="#929EB1"/>
</linearGradient>
</defs>
</svg>
