<svg width="281" height="62" viewBox="0 0 281 62" fill="none" xmlns="http://www.w3.org/2000/svg">
<path d="M165.857 -2.86102e-06C157.404 2.50751 155.467 14.616 155.467 14.616C155.467 14.616 152.446 12.7856 153.597 7.94768C149.157 9.27788 145.492 12.9571 144.358 17.7257C142.662 24.8509 147.157 31.9795 154.396 33.648C161.635 35.3165 168.877 30.893 170.572 23.7679C173.066 13.2856 163.747 8.86958 165.857 -2.86102e-06ZM156.605 29.468C153.817 29.5073 151.525 27.3148 151.485 24.5708C151.445 21.827 153.672 19.5706 156.46 19.5314C163.19 19.4365 164.825 16.1005 164.825 16.1005C164.825 16.1005 165.017 29.3494 156.605 29.468Z" fill="#FF2C2C"/>
<path d="M152.133 37.1574L151.432 37C148.965 40.8417 145.446 41.7414 143.995 41.7111L140 58.0654L146.66 59.5605L152.133 37.1574Z" fill="white"/>
<path d="M147.595 59.7704L149.932 60.295L155.405 37.8918L153.068 37.3672L147.595 59.7704Z" fill="white"/>
<path d="M156.34 38.1017L150.867 60.5048L157.527 62L163 39.5968L156.34 38.1017Z" fill="white"/>
<path fill-rule="evenodd" clip-rule="evenodd" d="M13.0267 45.4477C13.0267 49.1814 13.0267 53.5393 13.0267 57.273C18.1951 57.273 23.366 57.273 28.5344 57.273C28.5344 54.369 28.5344 51.4637 28.5344 48.5596C25.8466 48.5596 23.1582 48.5596 20.4704 48.5596C20.4704 47.5227 20.4704 46.4852 20.4704 45.4477C23.1582 45.4477 25.8466 45.4477 28.5344 45.4477C28.5344 35.9052 28.5344 26.3603 28.5344 16.8178C19.0238 16.8178 9.51075 16.8178 0.000183105 16.8178C0.000183105 30.3012 0.000183105 43.7896 0.000183105 57.273C2.89454 57.273 5.79014 57.273 8.6845 57.273V45.4477H13.0267ZM32.8765 16.8178C35.7709 16.8178 38.6665 16.8178 41.5609 16.8178C41.5609 27.3972 41.5609 37.9802 41.5609 48.5596C45.2821 48.5596 49.0052 48.5596 52.7264 48.5596C52.7264 37.9802 52.7264 27.3972 52.7264 16.8178C55.4142 16.8178 58.1026 16.8178 60.7904 16.8178C60.7904 30.3012 60.7904 43.7896 60.7904 57.273C51.4864 57.273 42.1799 57.273 32.8765 57.273C32.8765 43.7896 32.8765 30.3012 32.8765 16.8178ZM65.1326 57.273C74.4366 57.273 83.7425 57.273 93.0465 57.273C93.0465 48.7681 93.0465 40.26 93.0465 31.7551C86.6375 31.7551 80.2259 31.7551 73.8169 31.7551C73.8169 29.6807 73.8169 27.6057 73.8169 25.5312C80.2259 25.5312 86.6375 25.5312 93.0465 25.5312C93.0465 22.6272 93.0465 19.7219 93.0465 16.8178C83.7425 16.8178 74.4366 16.8178 65.1326 16.8178C65.1326 24.7003 65.1326 32.586 65.1326 40.4685C71.7488 40.4685 78.3663 40.4685 84.9825 40.4685C84.9825 43.1654 84.9825 45.8628 84.9825 48.5596C78.891 48.5086 65.1326 48.5596 65.1326 48.5596C65.1326 48.5596 65.1326 54.5762 65.1326 57.273ZM107.934 57.273C110.415 57.273 112.896 57.273 115.378 57.273C115.378 46.6937 115.378 36.1106 115.378 25.5312C118.686 25.5312 121.994 25.5312 125.303 25.5312C125.303 22.6272 125.303 19.7219 125.303 16.8178C115.999 16.8178 106.692 16.8178 97.3886 16.8178C97.3886 19.7219 97.3886 22.6272 97.3886 25.5312C100.903 25.5312 104.419 25.5312 107.934 25.5312V57.273ZM187.333 16.8178C190.228 16.8178 193.123 16.8178 196.018 16.8178C196.018 22.2114 196.018 27.6063 196.018 32.9999C199.946 32.9999 203.875 32.9999 207.804 32.9999C207.804 27.6063 207.804 22.2114 207.804 16.8178C210.698 16.8178 213.594 16.8178 216.488 16.8178C216.488 30.3012 216.488 43.7896 216.488 57.273C213.594 57.273 210.698 57.273 207.804 57.273C207.804 51.8794 207.804 46.4846 207.804 41.0909C203.875 41.0909 199.946 41.0909 196.018 41.0909C196.018 46.4846 196.018 51.8794 196.018 57.273C193.123 57.273 190.228 57.273 187.333 57.273C187.333 43.7896 187.333 30.3012 187.333 16.8178ZM220.21 16.8178C229.72 16.8178 239.233 16.8178 248.744 16.8178C248.744 30.3012 248.744 43.7896 248.744 57.273C239.233 57.273 229.72 57.273 220.21 57.273C220.21 43.7896 220.21 30.3012 220.21 16.8178ZM263.631 56.6506C266.113 56.6506 268.594 56.6506 271.075 56.6506C271.075 46.0713 271.075 35.4882 271.075 24.9088C274.383 24.9088 277.692 24.9088 281 24.9088C281 22.212 281 19.5146 281 16.8178C271.697 16.8178 262.39 16.8178 253.086 16.8178C253.086 19.5146 253.086 22.212 253.086 24.9088C256.394 24.9088 263.631 24.9088 263.631 24.9088V56.6506ZM20.4704 37.3566C20.4704 33.415 20.4704 29.4728 20.4704 25.5312C16.542 25.5312 12.6129 25.5312 8.6845 25.5312C8.6845 29.2649 8.6845 33.6229 8.6845 37.3566H20.4704ZM228.894 25.5312C228.894 33.2065 228.894 40.8843 228.894 48.5596C232.615 48.5596 236.338 48.5596 240.06 48.5596C240.06 40.8843 240.06 33.2065 240.06 25.5312C236.338 25.5312 232.615 25.5312 228.894 25.5312Z" fill="white"/>
</svg>
