<svg width="12" height="12" viewBox="0 0 12 12" fill="none" xmlns="http://www.w3.org/2000/svg">
<path d="M11.8796 6H11.0396C10.9736 6 10.9196 6.054 10.9196 6.12V10.92H1.07996V1.08H5.87981C5.94581 1.08 5.9998 1.026 5.9998 0.96V0.12C5.9998 0.054 5.94581 0 5.87981 0H0.479984C0.214493 0 0 0.2145 0 0.48V11.52C0 11.7855 0.214493 12 0.479984 12H11.5196C11.7851 12 11.9996 11.7855 11.9996 11.52V6.12C11.9996 6.054 11.9456 6 11.8796 6Z" fill="white"/>
<path d="M3.6584 6.3435L3.6299 8.127C3.6284 8.2605 3.73639 8.37 3.86989 8.37H3.87589L5.64583 8.3265C5.67583 8.325 5.70583 8.313 5.72683 8.292L11.9651 2.067C12.0116 2.0205 12.0116 1.944 11.9651 1.8975L10.1007 0.0345C10.0767 0.0105 10.0467 0 10.0152 0C9.98369 0 9.95369 0.012 9.92969 0.0345L3.6929 6.2595C3.67123 6.28216 3.65891 6.31216 3.6584 6.3435ZM4.61087 6.6975L10.0152 1.305L10.6932 1.9815L5.28584 7.377L4.60037 7.3935L4.61087 6.6975Z" fill="white"/>
</svg>
