<svg width="52" height="53" viewBox="0 0 52 53" fill="none" xmlns="http://www.w3.org/2000/svg">
<g filter="url(#filter0_d)">
<path d="M37 32.4688C37 34.1458 36.5935 35.4896 35.7805 36.5C34.9674 37.5 33.8709 38 32.4909 38C31.1109 38 30.009 37.5 29.1853 36.5C28.3722 35.4896 27.9657 34.1458 27.9657 32.4688C27.9657 30.8021 28.3722 29.4688 29.1853 28.4688C30.009 27.4583 31.1109 26.9531 32.4909 26.9531C33.8709 26.9531 34.9674 27.4583 35.7805 28.4688C36.5935 29.4688 37 30.8021 37 32.4688ZM32.4909 36.5156C33.2718 36.5156 33.8869 36.151 34.3363 35.4219C34.7963 34.6927 35.0263 33.7083 35.0263 32.4688C35.0263 31.2292 34.8016 30.25 34.3523 29.5313C33.903 28.8125 33.2825 28.4531 32.4909 28.4531C31.6992 28.4531 31.0734 28.8177 30.6134 29.5469C30.1641 30.2656 29.9395 31.2396 29.9395 32.4688C29.9395 33.7083 30.1641 34.6927 30.6134 35.4219C31.0734 36.151 31.6992 36.5156 32.4909 36.5156ZM24.0343 20.5156C24.0343 22.1927 23.6278 23.5365 22.8147 24.5469C22.0017 25.5469 20.9052 26.0469 19.5252 26.0469C18.1451 26.0469 17.0433 25.5469 16.2195 24.5469C15.4065 23.5365 15 22.1927 15 20.5156C15 18.849 15.4065 17.5156 16.2195 16.5156C17.0433 15.5052 18.1451 15 19.5252 15C20.9052 15 22.0017 15.5052 22.8147 16.5156C23.6278 17.5156 24.0343 18.849 24.0343 20.5156ZM19.5252 24.5625C20.3061 24.5625 20.9212 24.1979 21.3705 23.4688C21.8305 22.7396 22.0605 21.7552 22.0605 20.5156C22.0605 19.276 21.8359 18.2969 21.3866 17.5781C20.9373 16.8594 20.3168 16.5 19.5252 16.5C18.7335 16.5 18.1077 16.8646 17.6477 17.5938C17.1984 18.3125 16.9737 19.2865 16.9737 20.5156C16.9737 21.7552 17.1984 22.7396 17.6477 23.4688C18.1077 24.1979 18.7335 24.5625 19.5252 24.5625ZM18.4982 37.7813H16.3158L33.4055 15.2344H35.5558L18.4982 37.7813Z" fill="#FF2C2C"/>
</g>
<defs>
<filter id="filter0_d" x="0" y="0" width="52" height="53" filterUnits="userSpaceOnUse" color-interpolation-filters="sRGB">
<feFlood flood-opacity="0" result="BackgroundImageFix"/>
<feColorMatrix in="SourceAlpha" type="matrix" values="0 0 0 0 0 0 0 0 0 0 0 0 0 0 0 0 0 0 127 0"/>
<feOffset/>
<feGaussianBlur stdDeviation="7.5"/>
<feColorMatrix type="matrix" values="0 0 0 0 1 0 0 0 0 0.172549 0 0 0 0 0.172549 0 0 0 1 0"/>
<feBlend mode="normal" in2="BackgroundImageFix" result="effect1_dropShadow"/>
<feBlend mode="normal" in="SourceGraphic" in2="effect1_dropShadow" result="shape"/>
</filter>
</defs>
</svg>
