<svg width="22" height="23" viewBox="0 0 22 23" fill="none" xmlns="http://www.w3.org/2000/svg">
<path d="M22 17.4688C22 19.1458 21.5935 20.4896 20.7805 21.5C19.9674 22.5 18.8709 23 17.4909 23C16.1109 23 15.009 22.5 14.1853 21.5C13.3722 20.4896 12.9657 19.1458 12.9657 17.4688C12.9657 15.8021 13.3722 14.4688 14.1853 13.4688C15.009 12.4583 16.1109 11.9531 17.4909 11.9531C18.8709 11.9531 19.9674 12.4583 20.7805 13.4688C21.5935 14.4688 22 15.8021 22 17.4688ZM17.4909 21.5156C18.2718 21.5156 18.8869 21.151 19.3363 20.4219C19.7963 19.6927 20.0263 18.7083 20.0263 17.4688C20.0263 16.2292 19.8016 15.25 19.3523 14.5312C18.903 13.8125 18.2825 13.4531 17.4909 13.4531C16.6992 13.4531 16.0734 13.8177 15.6134 14.5469C15.1641 15.2656 14.9395 16.2396 14.9395 17.4688C14.9395 18.7083 15.1641 19.6927 15.6134 20.4219C16.0734 21.151 16.6992 21.5156 17.4909 21.5156ZM9.03428 5.51562C9.03428 7.19271 8.62777 8.53646 7.81473 9.54688C7.0017 10.5469 5.90518 11.0469 4.52516 11.0469C3.14515 11.0469 2.04328 10.5469 1.21955 9.54688C0.406516 8.53646 0 7.19271 0 5.51562C0 3.84896 0.406516 2.51562 1.21955 1.51562C2.04328 0.505208 3.14515 0 4.52516 0C5.90518 0 7.0017 0.505208 7.81473 1.51562C8.62777 2.51562 9.03428 3.84896 9.03428 5.51562ZM4.52516 9.5625C5.3061 9.5625 5.92123 9.19792 6.37053 8.46875C6.83054 7.73958 7.06054 6.75521 7.06054 5.51562C7.06054 4.27604 6.83589 3.29688 6.38658 2.57812C5.93727 1.85938 5.3168 1.5 4.52516 1.5C3.73353 1.5 3.10771 1.86458 2.6477 2.59375C2.1984 3.3125 1.97374 4.28646 1.97374 5.51562C1.97374 6.75521 2.1984 7.73958 2.6477 8.46875C3.10771 9.19792 3.73353 9.5625 4.52516 9.5625ZM3.49818 22.7812H1.31583L18.4055 0.234375H20.5558L3.49818 22.7812Z" fill="#FF2C2C"/>
</svg>
