<svg width="30" height="31" viewBox="0 0 30 31" fill="none" xmlns="http://www.w3.org/2000/svg">
<path d="M30 23.5448C30 25.8053 29.4457 27.6164 28.337 28.9783C27.2283 30.3261 25.733 31 23.8512 31C21.9694 31 20.4668 30.3261 19.3435 28.9783C18.2349 27.6164 17.6805 25.8053 17.6805 23.5448C17.6805 21.2985 18.2349 19.5014 19.3435 18.1535C20.4668 16.7917 21.9694 16.1107 23.8512 16.1107C25.733 16.1107 27.2283 16.7917 28.337 18.1535C29.4457 19.5014 30 21.2985 30 23.5448ZM23.8512 28.9993C24.9161 28.9993 25.7549 28.5079 26.3676 27.5251C26.9949 26.5423 27.3085 25.2156 27.3085 23.5448C27.3085 21.8741 27.0022 20.5543 26.3895 19.5856C25.7768 18.6168 24.9307 18.1325 23.8512 18.1325C22.7717 18.1325 21.9183 18.6239 21.291 19.6067C20.6783 20.5754 20.372 21.8881 20.372 23.5448C20.372 25.2156 20.6783 26.5423 21.291 27.5251C21.9183 28.5079 22.7717 28.9993 23.8512 28.9993ZM12.3195 7.4341C12.3195 9.69452 11.7651 11.5057 10.6565 12.8675C9.54778 14.2154 8.05252 14.8893 6.17068 14.8893C4.28884 14.8893 2.78629 14.2154 1.66302 12.8675C0.55434 11.5057 0 9.69452 0 7.4341C0 5.18773 0.55434 3.39063 1.66302 2.0428C2.78629 0.680933 4.28884 0 6.17068 0C8.05252 0 9.54778 0.680933 10.6565 2.0428C11.7651 3.39063 12.3195 5.18773 12.3195 7.4341ZM6.17068 12.8886C7.23559 12.8886 8.0744 12.3972 8.68709 11.4144C9.31437 10.4316 9.62801 9.10485 9.62801 7.4341C9.62801 5.76336 9.32166 4.44361 8.70897 3.47486C8.09628 2.50611 7.25018 2.02174 6.17068 2.02174C5.09117 2.02174 4.23778 2.51313 3.6105 3.49592C2.99781 4.46467 2.69147 5.7774 2.69147 7.4341C2.69147 9.10485 2.99781 10.4316 3.6105 11.4144C4.23778 12.3972 5.09117 12.8886 6.17068 12.8886ZM4.77024 30.7052H1.79431L25.0985 0.315897H28.0306L4.77024 30.7052Z" fill="url(#paint0_linear)"/>
<defs>
<linearGradient id="paint0_linear" x1="15" y1="0" x2="15" y2="31" gradientUnits="userSpaceOnUse">
<stop stop-color="white"/>
<stop offset="1" stop-color="#929EB1"/>
</linearGradient>
</defs>
</svg>
