<svg width="19" height="19" viewBox="0 0 19 19" fill="none" xmlns="http://www.w3.org/2000/svg">
<path d="M18.24 4.86473H14.7345C15.0575 4.37367 15.2475 3.79082 15.2475 3.16667C15.2475 1.42041 13.7774 0 11.97 0C10.9868 0 10.1009 0.422222 9.5 1.08768C8.89913 0.422222 8.01325 0 7.03 0C5.22262 0 3.7525 1.42041 3.7525 3.16667C3.7525 3.79082 3.94013 4.37367 4.2655 4.86473H0.76C0.339625 4.86473 0 5.19287 0 5.59903V10.1884C0 10.2894 0.0855 10.372 0.19 10.372H1.14V18.2657C1.14 18.6719 1.47962 19 1.9 19H17.1C17.5204 19 17.86 18.6719 17.86 18.2657V10.372H18.81C18.9145 10.372 19 10.2894 19 10.1884V5.59903C19 5.19287 18.6604 4.86473 18.24 4.86473ZM10.3075 3.16667C10.3075 2.28092 11.0533 1.56039 11.97 1.56039C12.8868 1.56039 13.6325 2.28092 13.6325 3.16667C13.6325 4.05242 12.8868 4.77295 11.97 4.77295H10.3075V3.16667ZM7.03 1.56039C7.94675 1.56039 8.6925 2.28092 8.6925 3.16667V4.77295H7.03C6.11325 4.77295 5.3675 4.05242 5.3675 3.16667C5.3675 2.28092 6.11325 1.56039 7.03 1.56039ZM1.615 8.81159V6.42512H8.6925V8.81159H1.615ZM2.755 10.372H8.6925V17.4396H2.755V10.372ZM16.245 17.4396H10.3075V10.372H16.245V17.4396ZM17.385 8.81159H10.3075V6.42512H17.385V8.81159Z" fill="url(#paint0_linear)"/>
<defs>
<linearGradient id="paint0_linear" x1="9.5" y1="0" x2="9.5" y2="19" gradientUnits="userSpaceOnUse">
<stop stop-color="white"/>
<stop offset="1" stop-color="#929EB1"/>
</linearGradient>
</defs>
</svg>
