<svg width="22" height="29" viewBox="0 0 22 29" fill="none" xmlns="http://www.w3.org/2000/svg">
<path d="M6.80037 2.45184V15.0527H12.184C14.4103 15.0527 16.1306 14.49 17.345 13.3645C18.5593 12.2391 19.1665 10.6983 19.1665 8.7422C19.1665 6.78609 18.5593 5.25202 17.345 4.13999C16.1306 3.01455 14.4103 2.45184 12.184 2.45184H6.80037ZM15.402 23.815H6.80037V29H4.04784V23.815H0V21.6847H4.04784V17.4643H0V15.0527H4.04784V0H12.8316C15.5842 0 17.797 0.817279 19.4701 2.45184C21.1567 4.073 22 6.16979 22 8.7422C22 11.328 21.1567 13.4315 19.4701 15.0527C17.797 16.6604 15.5774 17.4643 12.8114 17.4643H6.80037V21.6847H15.402V23.815Z" fill="url(#paint0_linear)"/>
<defs>
<linearGradient id="paint0_linear" x1="11" y1="0" x2="11" y2="29" gradientUnits="userSpaceOnUse">
<stop stop-color="white"/>
<stop offset="1" stop-color="#929EB1"/>
</linearGradient>
</defs>
</svg>
