<svg width="18" height="24" viewBox="0 0 18 24" fill="none" xmlns="http://www.w3.org/2000/svg">
<path d="M5.56394 2.02911V12.4574H9.96872C11.7902 12.4574 13.1978 11.9917 14.1914 11.0603C15.1849 10.1289 15.6817 8.85378 15.6817 7.23493C15.6817 5.61608 15.1849 4.3465 14.1914 3.4262C13.1978 2.4948 11.7902 2.02911 9.96872 2.02911H5.56394ZM12.6017 19.7089H5.56394V24H3.31187V19.7089H0V17.9459H3.31187V14.4532H0V12.4574H3.31187V0H10.4986C12.7507 0 14.5612 0.676369 15.9301 2.02911C17.31 3.37076 18 5.10603 18 7.23493C18 9.37491 17.31 11.1157 15.9301 12.4574C14.5612 13.7879 12.7452 14.4532 10.4821 14.4532H5.56394V17.9459H12.6017V19.7089Z" fill="#F0FB4A"/>
</svg>
