<svg width="18" height="18" viewBox="0 0 18 18" fill="none" xmlns="http://www.w3.org/2000/svg">
<path fill-rule="evenodd" clip-rule="evenodd" d="M14.446 16.2794L16.26 14.4653L15.6211 12.1443L15.8995 11.4795L18 10.2942V7.72891L15.9054 6.53869L15.6317 5.87509L16.2787 3.55283L14.4633 1.74014L12.1421 2.37885L11.4788 2.10074L10.2934 0H7.72809L6.53786 2.09458L5.87442 2.3682L3.55253 1.72048L1.74003 3.53298L2.37885 5.85464L2.10074 6.51792L0 7.7033V10.2679L2.09269 11.4607L2.36661 12.1249L1.71979 14.4468L3.53298 16.26L5.85464 15.6212L6.518 15.8993L7.7034 17.9992H10.2681L11.4601 15.9064L12.1241 15.6326L14.446 16.2794ZM14.9129 10.4026L14.1606 12.1992L14.7261 14.2535L14.2357 14.744L12.1857 14.1729L10.3883 14.9142L9.33421 16.7648H8.6401L7.59474 14.913L5.80011 14.1605L3.7447 14.7261L3.25508 14.2365L3.82615 12.1865L3.08492 10.3893L1.23424 9.33434V8.64015L3.08689 7.59476L3.83939 5.80006L3.27383 3.74465L3.76243 3.25604L5.81237 3.8279L7.61039 3.08636L8.66287 1.23418H9.35628L10.4017 3.08683L12.1964 3.83933L14.2522 3.27366L14.743 3.7638L14.1721 5.81335L14.9136 7.6112L16.7657 8.66369V9.3571L14.9129 10.4026ZM9.00002 12.618C7.0018 12.618 5.38192 10.9981 5.38192 8.99991C5.38192 7.00169 7.0018 5.38181 9.00002 5.38181C10.9982 5.38181 12.6181 7.00169 12.6181 8.99991C12.6181 10.9981 10.9982 12.618 9.00002 12.618ZM11.2285 8.99991C11.2285 10.2306 10.2307 11.2284 9.00001 11.2284C7.76928 11.2284 6.77157 10.2306 6.77157 8.99991C6.77157 7.76917 7.76928 6.77146 9.00001 6.77146C10.2307 6.77146 11.2285 7.76917 11.2285 8.99991Z" fill="url(#paint0_linear)"/>
<defs>
<linearGradient id="paint0_linear" x1="9" y1="0" x2="9" y2="17.9992" gradientUnits="userSpaceOnUse">
<stop stop-color="white"/>
<stop offset="1" stop-color="#929EB1"/>
</linearGradient>
</defs>
</svg>
