<svg width="35" height="27" viewBox="0 0 35 27" fill="none" xmlns="http://www.w3.org/2000/svg">
<path d="M18.9563 7.99087C18.9563 8.02452 18.9563 8.05817 18.958 8.08975L14.0608 15.1991C13.2675 15.1631 12.4715 15.3021 11.7167 15.6128C11.3839 15.7485 11.0721 15.915 10.7796 16.1073L0.0261296 11.6832C0.0262137 11.6832 -0.222699 15.7742 0.814271 18.8231L8.41637 21.9579C8.79807 23.6626 9.96826 25.1579 11.6947 25.8772C14.5193 27.0566 17.7761 25.7124 18.9511 22.8884C19.2569 22.1502 19.3995 21.3759 19.3789 20.6034L26.3859 15.5991C26.4426 15.6008 26.501 15.6025 26.5577 15.6025C30.7509 15.6025 34.1591 12.1862 34.1591 7.99087C34.1591 3.79516 30.7509 0.381943 26.5577 0.381943C22.3662 0.381943 18.9563 3.79516 18.9563 7.99087ZM17.7813 22.3974C16.8719 24.5794 14.3628 25.6146 12.1819 24.7064C11.1757 24.2875 10.4161 23.5201 9.97788 22.6051L12.4524 23.63C14.0608 24.2995 15.9061 23.5373 16.5747 21.9304C17.2453 20.3219 16.4845 18.4746 14.877 17.8051L12.3189 16.7459C13.306 16.3716 14.4281 16.3579 15.4765 16.794C16.5335 17.2334 17.3536 18.0609 17.7882 19.1184C18.2228 20.1759 18.2211 21.3433 17.7813 22.3974V22.3974ZM26.5577 13.0618C23.7662 13.0618 21.4935 10.7871 21.4935 7.99087C21.4935 5.19688 23.7662 2.92151 26.5577 2.92151C29.3509 2.92151 31.6236 5.19688 31.6236 7.99087C31.6236 10.7871 29.3509 13.0618 26.5577 13.0618ZM22.763 7.98314C22.763 5.87963 24.4671 4.17353 26.5663 4.17353C28.6672 4.17353 30.3713 5.87963 30.3713 7.98314C30.3713 10.0868 28.6672 11.7914 26.5663 11.7914C24.4671 11.7914 22.763 10.0868 22.763 7.98314V7.98314Z" fill="white"/>
</svg>
