<svg width="48" height="48" viewBox="0 0 48 48" fill="none" xmlns="http://www.w3.org/2000/svg">
<g filter="url(#filter0_d)">
<path fill-rule="evenodd" clip-rule="evenodd" d="M29.446 31.2794L31.26 29.4653L30.6211 27.1443L30.8995 26.4795L33 25.2942V22.7289L30.9054 21.5387L30.6317 20.8751L31.2787 18.5528L29.4633 16.7401L27.1421 17.3788L26.4788 17.1007L25.2934 15H22.7281L21.5379 17.0946L20.8744 17.3682L18.5525 16.7205L16.74 18.533L17.3788 20.8546L17.1007 21.5179L15 22.7033V25.2679L17.0927 26.4607L17.3666 27.1249L16.7198 29.4468L18.533 31.26L20.8546 30.6212L21.518 30.8993L22.7034 32.9992H25.2681L26.4601 30.9064L27.1241 30.6326L29.446 31.2794ZM29.9129 25.4026L29.1606 27.1992L29.7261 29.2535L29.2357 29.744L27.1857 29.1729L25.3883 29.9142L24.3342 31.7648H23.6401L22.5947 29.913L20.8001 29.1605L18.7447 29.7261L18.2551 29.2365L18.8261 27.1865L18.0849 25.3893L16.2342 24.3343V23.6402L18.0869 22.5948L18.8394 20.8001L18.2738 18.7446L18.7624 18.256L20.8124 18.8279L22.6104 18.0864L23.6629 16.2342H24.3563L25.4017 18.0868L27.1964 18.8393L29.2522 18.2737L29.743 18.7638L29.1721 20.8133L29.9136 22.6112L31.7657 23.6637V24.3571L29.9129 25.4026ZM24 27.618C22.0018 27.618 20.3819 25.9981 20.3819 23.9999C20.3819 22.0017 22.0018 20.3818 24 20.3818C25.9982 20.3818 27.6181 22.0017 27.6181 23.9999C27.6181 25.9981 25.9982 27.618 24 27.618ZM26.2285 23.9999C26.2285 25.2306 25.2307 26.2284 24 26.2284C22.7693 26.2284 21.7716 25.2306 21.7716 23.9999C21.7716 22.7692 22.7693 21.7715 24 21.7715C25.2307 21.7715 26.2285 22.7692 26.2285 23.9999Z" fill="#FF2C2C"/>
</g>
<defs>
<filter id="filter0_d" x="0" y="0" width="48" height="47.9992" filterUnits="userSpaceOnUse" color-interpolation-filters="sRGB">
<feFlood flood-opacity="0" result="BackgroundImageFix"/>
<feColorMatrix in="SourceAlpha" type="matrix" values="0 0 0 0 0 0 0 0 0 0 0 0 0 0 0 0 0 0 127 0"/>
<feOffset/>
<feGaussianBlur stdDeviation="7.5"/>
<feColorMatrix type="matrix" values="0 0 0 0 1 0 0 0 0 0.172549 0 0 0 0 0.172549 0 0 0 1 0"/>
<feBlend mode="normal" in2="BackgroundImageFix" result="effect1_dropShadow"/>
<feBlend mode="normal" in="SourceGraphic" in2="effect1_dropShadow" result="shape"/>
</filter>
</defs>
</svg>
