<svg width="19" height="16" viewBox="0 0 16 15" fill="none" xmlns="http://www.w3.org/2000/svg">
<path fill-rule="evenodd" clip-rule="evenodd" d="M8.52294 11.3584C7.90843 11.9642 7.30056 12.5594 6.69792 13.16C6.48722 13.37 6.2502 13.486 5.94798 13.4695C5.74215 13.4583 5.6266 13.3657 5.56353 13.1672C5.10235 11.7158 4.63363 10.2668 4.17453 8.81473C4.12979 8.67335 4.06242 8.60541 3.92212 8.56195C2.83468 8.22506 1.74941 7.88087 0.665528 7.53245C0.505045 7.48085 0.342557 7.41454 0.203317 7.32093C-0.039023 7.15806 -0.0736079 6.8991 0.147695 6.7116C0.352176 6.53832 0.594598 6.39325 0.842954 6.29371C2.21702 5.74315 3.59808 5.21042 4.97665 4.67134C8.29284 3.37458 11.6091 2.07795 14.9251 0.780567C15.5608 0.531849 16.0547 0.876786 15.9951 1.5713C15.9559 2.02913 15.8382 2.48099 15.7439 2.93297C15.009 6.45098 14.2713 9.96836 13.5346 13.486C13.5331 13.4927 13.5327 13.4997 13.5312 13.5064C13.351 14.3111 12.7739 14.5311 12.116 14.0406C10.9738 13.189 9.83442 12.3335 8.6937 11.48C8.63975 11.4396 8.58396 11.4017 8.52294 11.3584ZM5.99901 12.4662C6.01677 12.3836 6.02909 12.3455 6.03269 12.3066C6.10518 11.5155 6.18094 10.7247 6.24511 9.93287C6.2594 9.75714 6.31113 9.62737 6.4453 9.50535C8.17626 7.93114 9.90187 6.35086 11.6288 4.77217C12.1201 4.32309 12.6134 3.87625 13.0998 3.42195C13.1509 3.37425 13.162 3.28259 13.1917 3.21134C13.1165 3.18978 13.0323 3.13511 12.9681 3.15324C12.8199 3.19513 12.6704 3.25489 12.5403 3.33775C9.97267 4.97406 7.40831 6.61563 4.84055 8.25177C4.70991 8.33501 4.67262 8.40352 4.72501 8.56299C5.1316 9.80044 5.5264 11.0419 5.92546 12.2819C5.94109 12.3305 5.96315 12.3769 5.99901 12.4662Z" fill="url(#paint0_linear)"/>
<defs>
<linearGradient id="paint0_linear" x1="8" y1="0.700012" x2="8" y2="14.3" gradientUnits="userSpaceOnUse">
<stop stop-color="#fff"/>
<stop offset="1" stop-color="#fff"/>
</linearGradient>
</defs>
</svg>
