<svg width="16" height="19" viewBox="0 0 16 19" fill="none" xmlns="http://www.w3.org/2000/svg">
<path fill-rule="evenodd" clip-rule="evenodd" d="M5.6 0.800293H10.4C11.2836 0.800293 12 1.51664 12 2.40029V3.20003H14.4C15.2836 3.20003 16 3.91638 16 4.80003V6.40003C16 7.28368 15.2836 8.00003 14.4 8.00003H14.3359L13.6 16.7994C13.6 17.683 12.8837 18.3994 12 18.3994H4.00004C3.11638 18.3994 2.40004 17.683 2.4028 16.8658L1.66399 8.00003H1.6C0.716343 8.00003 0 7.28368 0 6.40003V4.80003C0 3.91638 0.716343 3.20003 1.6 3.20003H4V2.40029C4 1.51664 4.71635 0.800293 5.6 0.800293ZM4 4.80029V4.79977H1.6001V6.39976H14.4001V4.79977H12V4.80029H4ZM12.7306 8.00003H3.26925L4.00004 16.7997H12L12.0028 16.7333L12.7306 8.00003ZM10.4001 2.40055V3.20055H5.6001V2.40055H10.4001ZM5.03434 10.166L6.16571 9.03467L8.00003 10.869L9.83434 9.03467L10.9657 10.166L9.1314 12.0004L10.9657 13.8347L9.83434 14.966L8.00003 13.1317L6.16571 14.966L5.03434 13.8347L6.86866 12.0004L5.03434 10.166Z" fill="#FF2C2C"/>
</svg>
