<svg width="16" height="13" viewBox="0 0 16 13" fill="none" xmlns="http://www.w3.org/2000/svg">
<path fill-rule="evenodd" clip-rule="evenodd" d="M0 11.5253C1.4528 12.4572 3.1776 13 5.032 13C11.0704 13 14.372 7.99825 14.372 3.66112C14.372 3.51894 14.3688 3.37838 14.3624 3.23781C15.004 2.77469 15.5608 2.197 16 1.53887C15.412 1.8005 14.7792 1.976 14.1152 2.054C14.7928 1.65019 15.312 1.00506 15.5584 0.239688C14.924 0.615063 14.2208 0.888063 13.4736 1.03513C12.8752 0.398125 12.0216 0 11.0776 0C9.2648 0 7.7944 1.46819 7.7944 3.28006C7.7944 3.53844 7.824 3.78788 7.88 4.02838C5.152 3.89188 2.732 2.58537 1.1144 0.599625C0.832 1.0855 0.6696 1.64775 0.6696 2.24981C0.6696 3.38813 1.2488 4.39319 2.1296 4.98144C1.5912 4.966 1.0856 4.81731 0.6424 4.57113C0.6424 4.58494 0.6424 4.59875 0.6424 4.61256C0.6424 6.20181 1.7752 7.52944 3.2752 7.83088C3.0008 7.90644 2.7104 7.94544 2.4112 7.94544C2.1992 7.94544 1.9936 7.92594 1.7936 7.88694C2.2104 9.19181 3.4232 10.1408 4.8592 10.166C3.736 11.0467 2.3224 11.57 0.7832 11.57C0.5184 11.57 0.2576 11.557 0 11.5253Z" fill="url(#paint0_linear)"/>
<defs>
<linearGradient id="paint0_linear" x1="8" y1="0" x2="8" y2="13" gradientUnits="userSpaceOnUse">
<stop stop-color="#64657D"/>
<stop offset="1" stop-color="#5A5C7B"/>
</linearGradient>
</defs>
</svg>
