<svg width="12" height="12" viewBox="0 0 12 12" fill="none" xmlns="http://www.w3.org/2000/svg">
<path d="M4.20321 2.68899H5.38877V8.4549C5.38877 8.52989 5.44652 8.59125 5.51711 8.59125H6.47968C6.55027 8.59125 6.60802 8.52989 6.60802 8.4549V2.68899H7.79679C7.90428 2.68899 7.96364 2.55775 7.89786 2.46912L6.10107 0.0523157C6.08906 0.0360188 6.07372 0.0228389 6.05621 0.0137747C6.0387 0.0047106 6.01948 0 6 0C5.98052 0 5.9613 0.0047106 5.94379 0.0137747C5.92627 0.0228389 5.91094 0.0360188 5.89893 0.0523157L4.10214 2.46742C4.03636 2.55775 4.09572 2.68899 4.20321 2.68899V2.68899ZM11.8717 7.94358H10.9091C10.8385 7.94358 10.7807 8.00494 10.7807 8.07993V10.7047H1.21925V8.07993C1.21925 8.00494 1.1615 7.94358 1.09091 7.94358H0.128342C0.057754 7.94358 0 8.00494 0 8.07993V11.4546C0 11.7563 0.229412 12 0.513369 12H11.4866C11.7706 12 12 11.7563 12 11.4546V8.07993C12 8.00494 11.9422 7.94358 11.8717 7.94358Z" fill="white"/>
</svg>
