<svg width="29" height="31" viewBox="0 0 29 31" fill="none" xmlns="http://www.w3.org/2000/svg">
<path d="M27.8623 25.2985C27.1348 23.5583 26.0791 21.9777 24.7541 20.6446C23.433 19.3077 21.8681 18.2417 20.1457 17.5057C20.1303 17.4979 20.1149 17.494 20.0994 17.4862C22.5019 15.7337 24.0638 12.879 24.0638 9.65829C24.0638 4.32286 19.7832 0 14.5 0C9.21679 0 4.93623 4.32286 4.93623 9.65829C4.93623 12.879 6.49806 15.7337 8.90057 17.4901C8.88514 17.4979 8.86972 17.5018 8.85429 17.5095C7.12664 18.2456 5.57639 19.301 4.24595 20.6485C2.92209 21.9826 1.86659 23.563 1.13772 25.3024C0.421682 27.0053 0.0355052 28.831 9.64321e-05 30.6807C-0.000932849 30.7222 0.00628636 30.7636 0.0213289 30.8023C0.0363714 30.841 0.0589328 30.8763 0.0876836 30.906C0.116434 30.9358 0.150793 30.9594 0.188735 30.9756C0.226676 30.9917 0.267434 31 0.308605 31H2.62242C2.7921 31 2.92707 30.8637 2.93093 30.6962C3.00806 27.6897 4.20353 24.874 6.31681 22.7398C8.50336 20.5317 11.4072 19.3166 14.5 19.3166C17.5928 19.3166 20.4966 20.5317 22.6832 22.7398C24.7965 24.874 25.9919 27.6897 26.0691 30.6962C26.0729 30.8676 26.2079 31 26.3776 31H28.6914C28.7326 31 28.7733 30.9917 28.8113 30.9756C28.8492 30.9594 28.8836 30.9358 28.9123 30.906C28.9411 30.8763 28.9636 30.841 28.9787 30.8023C28.9937 30.7636 29.0009 30.7222 28.9999 30.6807C28.9613 28.8191 28.5796 27.0082 27.8623 25.2985ZM14.5 16.3568C12.7299 16.3568 11.064 15.6597 9.81067 14.394C8.55735 13.1283 7.86706 11.4459 7.86706 9.65829C7.86706 7.87073 8.55735 6.18832 9.81067 4.92261C11.064 3.65691 12.7299 2.9598 14.5 2.9598C16.2701 2.9598 17.936 3.65691 19.1893 4.92261C20.4426 6.18832 21.1329 7.87073 21.1329 9.65829C21.1329 11.4459 20.4426 13.1283 19.1893 14.394C17.936 15.6597 16.2701 16.3568 14.5 16.3568Z" fill="url(#paint0_linear)"/>
<defs>
<linearGradient id="paint0_linear" x1="14.5" y1="0" x2="14.5" y2="31" gradientUnits="userSpaceOnUse">
<stop stop-color="white"/>
<stop offset="1" stop-color="#929EB1"/>
</linearGradient>
</defs>
</svg>
